<svg version="1.1" viewBox="0.0 0.0 960.0 720.0" fill="none" stroke="none" stroke-linecap="square" stroke-miterlimit="10" xmlns:xlink="http://www.w3.org/1999/xlink" xmlns="http://www.w3.org/2000/svg"><clipPath id="p.0"><path d="m0 0l960.0 0l0 720.0l-960.0 0l0 -720.0z" clip-rule="nonzero"/></clipPath><g clip-path="url(#p.0)"><path fill="#000000" fill-opacity="0.0" d="m0 0l960.0 0l0 720.0l-960.0 0z" fill-rule="evenodd"/><path fill="#d2842d" d="m539.56256 437.4155c-0.80200195 -5.874878 12.236328 -15.970154 18.42218 -24.138031c6.185852 -8.167877 13.6675415 -15.618805 18.692993 -24.869293c5.0255127 -9.250488 8.810303 -22.372498 11.459839 -30.633636c2.6495361 -8.261139 1.6624146 -15.277344 4.437317 -18.933228c2.7749023 -3.6558838 6.8807373 -6.743805 12.212158 -3.0020752c5.331421 3.7417297 15.678284 13.594238 19.776306 25.452545c4.0980835 11.858307 8.286438 31.52478 4.812134 45.697327c-3.4743652 14.172516 -14.561707 32.414948 -25.658142 39.33789c-11.096436 6.9229126 -30.228027 3.6849976 -40.920532 2.1997375c-10.692444 -1.48526 -22.432251 -5.2363586 -23.234253 -11.111237z" fill-rule="evenodd"/><path fill="#ec748c" d="m599.09796 291.78818c6.1237793 3.5257568 12.809021 8.110962 20.0542 12.087189c7.245117 3.9762268 19.814148 7.4781494 23.416748 11.770142c3.6026 4.291992 2.7420044 10.797028 -1.8010254 13.981873c-4.543091 3.184845 -14.439453 4.371277 -25.457275 5.1271973c-11.017822 0.7559204 -33.805847 4.192749 -40.64966 -0.59161377c-6.843811 -4.7843323 -1.704773 -19.540833 -0.41333008 -28.114532c1.2914429 -8.573669 4.0203247 -20.950867 8.162048 -23.327576c4.1417236 -2.3767395 10.564575 5.541565 16.688293 9.067322z" fill-rule="evenodd"/><path fill="#ecb06c" d="m431.98947 290.311l0 0c0 -45.600464 36.49408 -82.56694 81.51181 -82.56694l0 0c21.618286 0 42.351135 8.69899 57.637573 24.183289c15.286438 15.484314 23.874268 36.48552 23.874268 58.38365l0 0c0 45.600433 -36.49408 82.566925 -81.51184 82.566925l0 0c-45.01773 0 -81.51181 -36.96649 -81.51181 -82.566925z" fill-rule="evenodd"/><path fill="#ecb06c" d="m362.92203 421.8039l0 0c0 -28.358429 22.989075 -51.347504 51.347504 -51.347504l131.10022 0l0 0c13.618225 0 26.67865 5.4098206 36.308228 15.039337c9.629517 9.629517 15.039307 22.689972 15.039307 36.308167l0 22.092377c0 28.35846 -22.989075 51.347534 -51.347534 51.347534l-131.10022 0c-28.358429 0 -51.347504 -22.989075 -51.347504 -51.347534z" fill-rule="evenodd"/><path fill="#ecb06c" d="m527.95215 367.31314c22.01648 -15.905975 48.415833 -13.227997 64.99713 6.5934143c16.58136 19.821411 19.435364 52.113037 7.0268555 79.504425c-12.408569 27.391388 -37.154175 43.42462 -60.925537 39.474976z" fill-rule="evenodd"/><path fill="#ecb06c" d="m415.2332 364.66693c-9.013184 -0.38830566 -26.779297 -0.5942688 -36.49234 -2.329712c-9.713074 -1.7354736 -15.396423 -4.9398193 -21.78601 -8.083038c-6.3895874 -3.1431885 -11.179169 -9.20459 -16.551544 -10.776215c-5.372345 -1.5715942 -11.761932 -1.6835327 -15.682587 1.3466187c-3.9206543 3.0301208 -6.389038 7.2931824 -7.8413086 16.834137c-1.4522705 9.540955 -2.469513 23.685394 -0.872406 40.41165c1.5971069 16.726257 4.356262 46.02649 10.455078 59.945892c6.0987854 13.919434 13.358459 18.070557 26.137634 23.570587c12.779205 5.5000305 39.64618 8.6432495 50.537445 9.429626c10.891266 0.78637695 11.906189 -1.0073547 14.810181 -4.7113647c2.9039917 -3.7039795 -8.094574 -3.1108704 2.6137695 -17.512634c10.708374 -14.401733 49.672546 -50.651306 61.636414 -68.8978c11.963898 -18.246521 18.376587 -34.043335 10.146973 -40.58127c-8.229614 -6.537964 -46.67276 1.1279297 -59.524628 1.3535156c-12.851898 0.22558594 -8.573517 0.38827515 -17.58667 0z" fill-rule="evenodd"/><path fill="#d2842d" d="m404.9037 405.31348c3.412506 -6.521942 23.842346 -7.3900757 35.963318 -11.221619c12.121002 -3.831543 25.035858 -6.008026 36.762604 -11.767578c11.726746 -5.7595825 24.982819 -16.32779 33.59787 -22.789856c8.615051 -6.4620667 12.660889 -14.272034 18.092346 -15.982574c5.4315186 -1.7105408 11.799438 -1.8917236 14.496582 5.7192993c2.6970825 7.611023 6.069275 25.004425 1.6860962 39.946808c-4.3831177 14.942383 -14.287537 37.85318 -27.984985 49.707428c-13.697479 11.854279 -38.012238 22.368439 -54.19983 21.41809c-16.187561 -0.9503174 -33.190033 -17.948395 -42.92569 -27.120056c-9.735687 -9.171661 -18.900818 -21.388031 -15.488312 -27.909943z" fill-rule="evenodd"/><path fill="#000000" d="m530.03864 265.42145l24.316711 0l0 0c3.1855469 0 5.7679443 2.9379883 5.7679443 6.562195c0 3.6242065 -2.5823975 6.562195 -5.7679443 6.562195l-24.316711 0l0 0c-3.1855469 0 -5.7679443 -2.9379883 -5.7679443 -6.562195c0 -3.6242065 2.5823975 -6.562195 5.7679443 -6.562195z" fill-rule="evenodd"/><path fill="#f79148" d="m519.0967 306.60126l0 0c0 -12.959106 10.336243 -23.46457 23.086609 -23.46457l0 0c6.122925 0 11.995117 2.472168 16.324707 6.8726196c4.32959 4.400482 6.761902 10.368774 6.761902 16.59195l0 0c0 12.959137 -10.336243 23.46457 -23.086609 23.46457l0 0c-12.750366 0 -23.086609 -10.505432 -23.086609 -23.46457z" fill-rule="evenodd"/></g></svg>