<svg version="1.1" viewBox="0.0 0.0 960.0 720.0" fill="none" stroke="none" stroke-linecap="square" stroke-miterlimit="10" xmlns:xlink="http://www.w3.org/1999/xlink" xmlns="http://www.w3.org/2000/svg"><clipPath id="p.0"><path d="m0 0l960.0 0l0 720.0l-960.0 0l0 -720.0z" clip-rule="nonzero"/></clipPath><g clip-path="url(#p.0)"><path fill="#000000" fill-opacity="0.0" d="m0 0l960.0 0l0 720.0l-960.0 0z" fill-rule="evenodd"/><path fill="#b37026" d="m396.93204 314.4126c7.741516 -1.129425 21.044342 17.231567 31.807404 25.942688c10.763092 8.711151 20.58139 19.24707 32.771027 26.324097c12.189667 7.0770264 29.480927 12.406952 40.366882 16.138092c10.885956 3.7311401 20.13144 2.341034 24.948883 6.248749c4.817505 3.9077148 8.886536 9.689667 3.9559326 17.19754c-4.930603 7.507843 -17.913513 22.078613 -33.53958 27.84967c-15.626038 5.7710266 -41.54117 11.669189 -60.216736 6.77652c-18.675598 -4.8926697 -42.714172 -20.506165 -51.83676 -36.132538c-9.122559 -15.626343 -4.8558044 -42.568115 -2.8986511 -57.62558c1.9571533 -15.057465 6.900116 -31.589813 14.641602 -32.71924z" fill-rule="evenodd"/><path fill="#ec748c" d="m600.11774 289.84344c6.1761475 3.6265259 12.91864 8.342773 20.22583 12.432648c7.30719 4.0898438 19.983765 7.6918335 23.617249 12.106476c3.6334229 4.4146423 2.765503 11.10556 -1.8164673 14.381439c-4.58197 3.2758484 -14.563049 4.4961853 -25.675232 5.273712c-11.112122 0.77752686 -34.095154 4.312561 -40.99762 -0.6085205c-6.902405 -4.921051 -1.7193604 -20.099243 -0.41687012 -28.917969c1.3024902 -8.818695 4.0547485 -21.549591 8.231934 -23.994232c4.177185 -2.4446106 10.655029 5.699951 16.831177 9.326447z" fill-rule="evenodd"/><path fill="#ecb06c" d="m431.57855 288.3158l0 0c0 -46.896362 36.80432 -84.913376 82.20471 -84.913376l0 0c21.802063 0 42.71118 8.946213 58.127563 24.87056c15.416382 15.924347 24.07721 37.5224 24.07721 60.042816l0 0c0 46.896362 -36.80432 84.91339 -82.20477 84.91339l0 0c-45.40039 0 -82.20471 -38.01703 -82.20471 -84.91339z" fill-rule="evenodd"/><path fill="#ecb06c" d="m361.9198 423.5661l0 0c0 -29.167267 23.644714 -52.81201 52.81198 -52.81201l130.18704 0l0 0c14.006592 0 27.439514 5.5641174 37.34369 15.468292c9.904175 9.904144 15.468323 23.337097 15.468323 37.34372l0 22.722443c0 29.167267 -23.644775 52.81201 -52.81201 52.81201l-130.18704 0c-29.167267 0 -52.81198 -23.644745 -52.81198 -52.81201z" fill-rule="evenodd"/><path fill="#ecb06c" d="m527.9857 367.78094c22.155579 -16.54657 48.847473 -13.988953 65.69202 6.294586c16.844543 20.28357 19.86145 53.50006 7.424988 81.74997c-12.436462 28.249878 -37.387634 44.857758 -61.407898 40.874023z" fill-rule="evenodd"/><path fill="#ecb06c" d="m414.67935 364.80115c-9.090363 -0.39938354 -27.008698 -0.6112366 -36.804962 -2.3963013c-9.796265 -1.7850647 -15.52832 -5.081024 -21.972656 -8.314087c-6.4443054 -3.2330322 -11.274933 -9.467712 -16.693329 -11.0842285c-5.418396 -1.6165161 -11.862701 -1.7316589 -15.816956 1.3851013c-3.9542236 3.1167297 -6.443756 7.501648 -7.908478 17.315338c-1.4647217 9.81369 -2.4906616 24.362427 -0.8798828 41.566772c1.6107788 17.204376 4.393585 47.342133 10.544647 61.659454c6.1510315 14.317291 13.4729 18.587067 26.361572 24.244324c12.888672 5.6572266 39.98581 8.890289 50.970398 9.699158c10.984589 0.8088379 12.008209 -1.0361633 14.937073 -4.846039c2.9288635 -3.8098755 -8.16394 -3.1997986 2.6361694 -18.013214c10.800079 -14.813416 50.098053 -52.09915 62.16446 -70.86722c12.066376 -18.768066 18.533997 -35.01642 10.233887 -41.741272c-8.30014 -6.724823 -47.0726 1.1601868 -60.034607 1.3922119c-12.961975 0.23202515 -8.646942 0.39938354 -17.737335 0z" fill-rule="evenodd"/><path fill="#d2842d" d="m363.01135 314.4181c8.739929 -1.2524719 23.758392 19.108734 35.909576 28.76883c12.151184 9.660126 23.235748 21.343811 36.997467 29.191803c13.761749 7.847992 33.28305 13.758545 45.572968 17.896149c12.289917 4.1376038 22.727783 2.5960693 28.166534 6.929474c5.4387817 4.333435 10.032654 10.745239 4.4661255 19.071014c-5.566498 8.325775 -20.223816 24.483856 -37.865143 30.883575c-17.641357 6.399719 -46.898712 12.94043 -67.98288 7.5147705c-21.084167 -5.4256897 -48.222992 -22.740112 -58.522095 -40.068756c-10.299072 -17.328674 -5.482086 -47.205444 -3.2724915 -63.90326c2.2095642 -16.697815 7.7900085 -35.03116 16.529938 -36.2836z" fill-rule="evenodd"/><path fill="#000000" d="m549.3466 258.1017l0 25.004974l0 0c0 3.2757263 -2.963379 5.9312134 -6.6188965 5.9312134c-3.6555176 0 -6.6188965 -2.655487 -6.6188965 -5.9312134l0 -25.004974l0 0c0 -3.275711 2.963379 -5.9312134 6.6188965 -5.9312134c3.6555176 0 6.6188965 2.6555023 6.6188965 5.9312134z" fill-rule="evenodd"/><path fill="#f79148" d="m519.4315 304.20877l0 0c0 -13.33313 10.427856 -24.141754 23.29132 -24.141754l0 0c6.177246 0 12.101501 2.543518 16.469482 7.0709534c4.367981 4.527466 6.8218384 10.667999 6.8218384 17.0708l0 0c0 13.333099 -10.427856 24.141724 -23.29132 24.141724l0 0c-12.863464 0 -23.29132 -10.808624 -23.29132 -24.141724z" fill-rule="evenodd"/></g></svg>